<?xml version="1.0" encoding="UTF-8"?>
<!DOCTYPE svg PUBLIC "-//W3C//DTD SVG 1.1//EN" "http://www.w3.org/Graphics/SVG/1.1/DTD/svg11.dtd">
<!-- Creator: CorelDRAW 2020 (64 Bit) -->
<svg xmlns="http://www.w3.org/2000/svg" xml:space="preserve" width="26.7703mm" height="22.7356mm" version="1.1" style="shape-rendering:geometricPrecision; text-rendering:geometricPrecision; image-rendering:optimizeQuality; fill-rule:evenodd; clip-rule:evenodd"
viewBox="0 0 255.23 216.76"
 xmlns:xlink="http://www.w3.org/1999/xlink"
 xmlns:xodm="http://www.corel.com/coreldraw/odm/2003">
 <defs>
  <style type="text/css">
   <![CDATA[
    .str0 {stroke:#FEFEFE;stroke-width:1.91;stroke-miterlimit:22.9256}
    .fil1 {fill:#FEFEFE}
    .fil0 {fill:#FEFEFE;fill-rule:nonzero}
   ]]>
  </style>
 </defs>
 <g id="Camada_x0020_1">
  <metadata id="CorelCorpID_0Corel-Layer"/>
  <path class="fil0 str0" d="M1.85 112.37c-0.46,0.43 -0.81,1.15 -0.88,1.77 -0.32,2.86 3,4.52 5.13,2.53l30.89 -30.53 26.85 21.84c1.33,1.08 2.89,0.81 3.9,-0.09l0.03 -0 88.4 -79.33 37.76 31.89c1.39,1.13 3.05,0.83 4.06,-0.15l37.38 -36.62 8.96 9.14 9.47 -31.45 -31.64 8.84 8.96 9.14 -35.4 34.69 -37.67 -31.82 -0.02 0c-0.94,-0.81 -2.35,-1.07 -3.72,-0.14l-0.24 0.2 -88.43 79.36 -26.84 -21.83c-1.09,-0.96 -2.84,-1.11 -4.15,0.11l-32.82 32.44z"/>
  <g id="_2630633872480">
   <g>
    <path class="fil0" d="M21.84 214.89c-1.08,0 -1.95,-0.88 -1.95,-1.95 0,-1.08 0.88,-1.95 1.95,-1.95l0 3.91zm49.65 0l-49.65 0 0 -3.91 49.65 0 0 3.91zm0 -3.91c1.08,0 1.95,0.88 1.95,1.95 0,1.08 -0.88,1.95 -1.95,1.95l0 -3.91z"/>
   </g>
   <path class="fil1" d="M46.66 133.78c19.25,0 34.85,15.6 34.85,34.85 0,19.25 -15.6,34.85 -34.85,34.85 -19.25,0 -34.85,-15.61 -34.85,-34.85 0,-19.25 15.6,-34.85 34.85,-34.85zm-9.84 44.47c1.48,1.22 2.92,2.12 4.32,2.69 1.4,0.57 2.84,0.86 4.32,0.86 1.81,0 3.23,-0.42 4.27,-1.25 1.04,-0.83 1.55,-2.02 1.55,-3.58 0,-1.52 -0.49,-2.75 -1.47,-3.71 -0.98,-0.96 -2.58,-1.74 -4.8,-2.33 -3.59,-1 -6.17,-2.36 -7.76,-4.07 -1.59,-1.72 -2.38,-3.93 -2.38,-6.63 0,-2.48 0.7,-4.58 2.11,-6.32 1.4,-1.74 3.34,-2.96 5.82,-3.66l0 -5.54 3.38 0 0 4.93c0.18,0 0.39,-0.01 0.61,-0.03 0.22,-0.02 0.44,-0.03 0.67,-0.03 0.18,0 0.37,0 0.55,0 0.18,0 0.37,0.02 0.55,0.06l0 -4.93 3.38 0 0 5.43c0.96,0.26 1.87,0.56 2.72,0.91 0.85,0.35 1.5,0.68 1.94,0.97 0.96,0.63 1.44,1.44 1.44,2.44 0,0.48 -0.19,1.11 -0.58,1.88 -0.39,0.78 -0.9,1.52 -1.52,2.22 -1.03,-0.92 -2.26,-1.66 -3.69,-2.22 -1.42,-0.55 -2.8,-0.83 -4.13,-0.83 -1.77,0 -3.16,0.34 -4.16,1.03 -1,0.68 -1.5,1.69 -1.5,3.02 0,0.81 0.17,1.52 0.5,2.13 0.33,0.61 0.92,1.15 1.77,1.64 0.85,0.48 2.29,1.05 4.32,1.72 3.4,1.15 5.87,2.59 7.4,4.32 1.53,1.74 2.3,3.88 2.3,6.43 0,2.55 -0.58,4.75 -1.75,6.6 -1.16,1.85 -2.86,3.23 -5.07,4.16l0 5.99 -3.38 0 0 -5.1c-0.59,0.11 -1.39,0.2 -2.38,0.28l0 4.82 -3.38 0 0 -4.99c-2.88,-0.33 -5.16,-1.03 -6.82,-2.11 -0.96,-0.7 -1.44,-1.52 -1.44,-2.44 0,-0.52 0.21,-1.22 0.64,-2.11 0.43,-0.89 0.97,-1.77 1.64,-2.66z"/>
   <g>
    <path class="fil0" d="M102.26 182.79c-1.08,0 -1.95,-0.88 -1.95,-1.95 0,-1.08 0.88,-1.95 1.95,-1.95l0 3.91zm49.65 0l-49.65 0 0 -3.91 49.65 0 0 3.91zm0 -3.91c1.08,0 1.95,0.88 1.95,1.95 0,1.08 -0.88,1.95 -1.95,1.95l0 -3.91z"/>
   </g>
   <path class="fil1" d="M127.09 101.68c19.25,0 34.85,15.6 34.85,34.85 0,19.25 -15.61,34.85 -34.85,34.85 -19.25,0 -34.85,-15.6 -34.85,-34.85 0,-19.25 15.6,-34.85 34.85,-34.85zm-9.84 44.47c1.48,1.22 2.92,2.12 4.32,2.69 1.4,0.57 2.85,0.86 4.32,0.86 1.81,0 3.23,-0.42 4.27,-1.25 1.03,-0.83 1.55,-2.02 1.55,-3.58 0,-1.52 -0.49,-2.75 -1.47,-3.71 -0.98,-0.96 -2.58,-1.74 -4.8,-2.33 -3.58,-1 -6.17,-2.36 -7.76,-4.07 -1.59,-1.72 -2.38,-3.93 -2.38,-6.63 0,-2.48 0.7,-4.58 2.11,-6.32 1.4,-1.74 3.34,-2.96 5.82,-3.66l0 -5.54 3.38 0 0 4.93c0.18,0 0.39,-0.01 0.61,-0.03 0.22,-0.02 0.44,-0.03 0.67,-0.03 0.18,0 0.37,0 0.55,0 0.18,0 0.37,0.02 0.55,0.06l0 -4.93 3.38 0 0 5.43c0.96,0.26 1.87,0.56 2.72,0.91 0.85,0.35 1.5,0.68 1.94,0.97 0.96,0.63 1.44,1.44 1.44,2.44 0,0.48 -0.19,1.11 -0.58,1.88 -0.39,0.78 -0.9,1.52 -1.53,2.22 -1.03,-0.92 -2.26,-1.66 -3.69,-2.22 -1.42,-0.55 -2.8,-0.83 -4.13,-0.83 -1.77,0 -3.16,0.34 -4.16,1.03 -1,0.68 -1.5,1.69 -1.5,3.02 0,0.81 0.17,1.52 0.5,2.13 0.33,0.61 0.92,1.15 1.77,1.64 0.85,0.48 2.29,1.05 4.32,1.72 3.4,1.15 5.87,2.59 7.4,4.32 1.53,1.74 2.3,3.88 2.3,6.43 0,2.55 -0.58,4.75 -1.75,6.6 -1.16,1.85 -2.85,3.23 -5.07,4.16l0 5.99 -3.38 0 0 -5.1c-0.59,0.11 -1.39,0.2 -2.38,0.28l0 4.82 -3.38 0 0 -4.99c-2.88,-0.33 -5.16,-1.03 -6.82,-2.11 -0.96,-0.7 -1.44,-1.52 -1.44,-2.44 0,-0.52 0.21,-1.22 0.64,-2.11 0.43,-0.89 0.97,-1.77 1.64,-2.66z"/>
   <g>
    <path class="fil0" d="M102.26 199.82c-1.08,0 -1.95,-0.88 -1.95,-1.95 0,-1.08 0.88,-1.95 1.95,-1.95l0 3.91zm49.65 0l-49.65 0 0 -3.91 49.65 0 0 3.91zm0 -3.91c1.08,0 1.95,0.88 1.95,1.95 0,1.08 -0.88,1.95 -1.95,1.95l0 -3.91z"/>
   </g>
   <g>
    <path class="fil0" d="M102.26 216.76c-1.08,0 -1.95,-0.88 -1.95,-1.95 0,-1.08 0.88,-1.95 1.95,-1.95l0 3.91zm49.65 0l-49.65 0 0 -3.91 49.65 0 0 3.91zm0 -3.91c1.08,0 1.95,0.88 1.95,1.95 0,1.08 -0.88,1.95 -1.95,1.95l0 -3.91z"/>
   </g>
   <path class="fil1" d="M211.13 68.46c19.25,0 34.85,15.6 34.85,34.85 0,19.25 -15.6,34.85 -34.85,34.85 -19.25,0 -34.85,-15.61 -34.85,-34.85 0,-19.25 15.61,-34.85 34.85,-34.85zm-9.84 44.47c1.48,1.22 2.92,2.12 4.32,2.69 1.4,0.57 2.85,0.86 4.32,0.86 1.81,0 3.23,-0.42 4.27,-1.25 1.03,-0.83 1.55,-2.02 1.55,-3.58 0,-1.52 -0.49,-2.75 -1.47,-3.71 -0.98,-0.96 -2.58,-1.74 -4.79,-2.33 -3.59,-1 -6.17,-2.36 -7.76,-4.07 -1.59,-1.72 -2.38,-3.93 -2.38,-6.63 0,-2.48 0.7,-4.58 2.11,-6.32 1.4,-1.74 3.34,-2.96 5.82,-3.66l0 -5.54 3.38 0 0 4.93c0.18,0 0.39,-0.01 0.61,-0.03 0.22,-0.02 0.44,-0.03 0.67,-0.03 0.18,0 0.37,0 0.55,0 0.18,0 0.37,0.02 0.55,0.06l0 -4.93 3.38 0 0 5.43c0.96,0.26 1.87,0.56 2.72,0.91 0.85,0.35 1.5,0.68 1.94,0.97 0.96,0.63 1.44,1.44 1.44,2.44 0,0.48 -0.19,1.11 -0.58,1.88 -0.39,0.78 -0.9,1.52 -1.52,2.22 -1.04,-0.92 -2.26,-1.66 -3.69,-2.22 -1.42,-0.55 -2.8,-0.83 -4.13,-0.83 -1.77,0 -3.16,0.34 -4.16,1.03 -1,0.68 -1.5,1.69 -1.5,3.02 0,0.81 0.17,1.52 0.5,2.13 0.33,0.61 0.92,1.15 1.77,1.64 0.85,0.48 2.29,1.05 4.32,1.72 3.4,1.15 5.87,2.59 7.4,4.32 1.53,1.74 2.3,3.88 2.3,6.43 0,2.55 -0.58,4.75 -1.75,6.6 -1.16,1.85 -2.86,3.23 -5.07,4.16l0 5.99 -3.38 0 0 -5.1c-0.59,0.11 -1.39,0.2 -2.38,0.28l0 4.82 -3.38 0 0 -4.99c-2.88,-0.33 -5.16,-1.03 -6.82,-2.11 -0.96,-0.7 -1.44,-1.52 -1.44,-2.44 0,-0.52 0.21,-1.22 0.64,-2.11 0.43,-0.89 0.97,-1.77 1.64,-2.66z"/>
   <g>
    <path class="fil0" d="M186.3 168.88c-1.08,0 -1.95,-0.88 -1.95,-1.95 0,-1.08 0.88,-1.95 1.95,-1.95l0 3.91zm49.65 0l-49.65 0 0 -3.91 49.65 0 0 3.91zm0 -3.91c1.08,0 1.95,0.88 1.95,1.95 0,1.08 -0.88,1.95 -1.95,1.95l0 -3.91z"/>
   </g>
   <g>
    <path class="fil0" d="M186.3 151.94c-1.08,0 -1.95,-0.88 -1.95,-1.95 0,-1.08 0.88,-1.95 1.95,-1.95l0 3.91zm49.65 0l-49.65 0 0 -3.91 49.65 0 0 3.91zm0 -3.91c1.08,0 1.95,0.88 1.95,1.95 0,1.08 -0.88,1.95 -1.95,1.95l0 -3.91z"/>
   </g>
   <g>
    <path class="fil0" d="M186.3 182.56c-1.08,0 -1.95,-0.88 -1.95,-1.95 0,-1.08 0.88,-1.95 1.95,-1.95l0 3.91zm49.65 0l-49.65 0 0 -3.91 49.65 0 0 3.91zm0 -3.91c1.08,0 1.95,0.88 1.95,1.95 0,1.08 -0.88,1.95 -1.95,1.95l0 -3.91z"/>
   </g>
   <g>
    <path class="fil0" d="M186.3 200.15c-1.08,0 -1.95,-0.88 -1.95,-1.95 0,-1.08 0.88,-1.95 1.95,-1.95l0 3.91zm49.65 0l-49.65 0 0 -3.91 49.65 0 0 3.91zm0 -3.91c1.08,0 1.95,0.88 1.95,1.95 0,1.08 -0.88,1.95 -1.95,1.95l0 -3.91z"/>
   </g>
   <g>
    <path class="fil0" d="M186.3 215.78c-1.08,0 -1.95,-0.88 -1.95,-1.95 0,-1.08 0.88,-1.95 1.95,-1.95l0 3.91zm49.65 0l-49.65 0 0 -3.91 49.65 0 0 3.91zm0 -3.91c1.08,0 1.95,0.88 1.95,1.95 0,1.08 -0.88,1.95 -1.95,1.95l0 -3.91z"/>
   </g>
  </g>
 </g>
</svg>
