<?xml version="1.0" encoding="UTF-8"?>
<!DOCTYPE svg PUBLIC "-//W3C//DTD SVG 1.1//EN" "http://www.w3.org/Graphics/SVG/1.1/DTD/svg11.dtd">
<!-- Creator: CorelDRAW 2020 (64 Bit) -->
<svg xmlns="http://www.w3.org/2000/svg" xml:space="preserve" width="21.9842mm" height="30.4198mm" version="1.1" style="shape-rendering:geometricPrecision; text-rendering:geometricPrecision; image-rendering:optimizeQuality; fill-rule:evenodd; clip-rule:evenodd"
viewBox="0 0 261.2 361.42"
 xmlns:xlink="http://www.w3.org/1999/xlink"
 xmlns:xodm="http://www.corel.com/coreldraw/odm/2003">
 <defs>
  <style type="text/css">
   <![CDATA[
    .fil0 {fill:#FEFEFE;fill-rule:nonzero}
   ]]>
  </style>
 </defs>
 <g id="Camada_x0020_1">
  <metadata id="CorelCorpID_0Corel-Layer"/>
  <path class="fil0" d="M67.31 285.09c-2.1,0.4 -4.09,-1.13 -4.46,-3.41 -0.37,-2.28 1.04,-4.45 3.13,-4.85l129.67 -24.77c2.1,-0.4 4.09,1.13 4.46,3.41 0.37,2.28 -1.04,4.45 -3.13,4.85l-129.67 24.77z"/>
  <path class="fil0" d="M70.9 310.76c-2.05,0.4 -4.01,-1.13 -4.36,-3.41 -0.36,-2.28 1.01,-4.45 3.07,-4.85l126.86 -24.77c2.05,-0.4 4.01,1.13 4.36,3.41 0.36,2.28 -1.01,4.45 -3.07,4.85l-126.86 24.77z"/>
  <path class="fil0" d="M80.21 336.4c-1.88,0.4 -3.68,-1.12 -4.01,-3.39 -0.33,-2.27 0.93,-4.43 2.81,-4.83l115.92 -24.77c1.88,-0.4 3.68,1.12 4.01,3.39 0.33,2.27 -0.93,4.43 -2.81,4.83l-115.92 24.77z"/>
  <path class="fil0" d="M129.96 82.43c15.78,0 30.07,6.4 40.41,16.74 10.34,10.34 16.74,24.63 16.74,40.41 0,15.78 -6.4,30.07 -16.74,40.41 -10.34,10.34 -24.63,16.74 -40.41,16.74 -15.78,0 -30.07,-6.4 -40.41,-16.74 -10.34,-10.34 -16.74,-24.63 -16.74,-40.41 0,-15.78 6.4,-30.07 16.74,-40.41 10.34,-10.34 24.63,-16.74 40.41,-16.74zm34.48 22.67c-8.82,-8.82 -21.02,-14.28 -34.48,-14.28 -13.47,0 -25.66,5.46 -34.48,14.28 -8.82,8.82 -14.28,21.02 -14.28,34.48 0,13.47 5.46,25.66 14.28,34.48 8.82,8.82 21.02,14.28 34.48,14.28 13.47,0 25.66,-5.46 34.48,-14.28 8.82,-8.82 14.28,-21.02 14.28,-34.48 0,-13.47 -5.46,-25.66 -14.28,-34.48z"/>
  <g id="_2630193038704">
   <path class="fil0" d="M116.6 0l28.88 0c3.44,0 6.56,1.4 8.81,3.66l-0.01 0.01c2.26,2.27 3.67,5.39 3.67,8.8l0 24.7c-4.1,-1.13 -8.29,-2.01 -12.57,-2.64l0 -21.96 -28.68 0 0 21.66c-4.28,0.54 -8.47,1.33 -12.57,2.37l0 -24.13c0,-3.41 1.4,-6.52 3.66,-8.79l0.02 -0.02c2.27,-2.26 5.38,-3.66 8.79,-3.66z"/>
   <path class="fil0" d="M30.55 39.19l20.42 -20.42 0.01 0.01c2.44,-2.44 5.64,-3.66 8.81,-3.66 3.19,0 6.39,1.22 8.82,3.65l22.18 22.18c-4.15,1.66 -8.17,3.59 -12.04,5.74l-18.96 -18.96 -0 0 -20.28 20.28 16.12 16.12c-2.97,2.96 -5.77,6.1 -8.38,9.4l-16.7 -16.7c-2.43,-2.43 -3.65,-5.63 -3.65,-8.82 0,-3.19 1.22,-6.39 3.65,-8.82z"/>
   <path class="fil0" d="M222.58 48.4l-20.28 -20.28 -19.5 19.5c-3.81,-2.21 -7.76,-4.2 -11.85,-5.93l22.53 -22.53c2.43,-2.43 5.63,-3.65 8.82,-3.65 3.19,0 6.39,1.22 8.82,3.65l20.42 20.42c2.43,2.43 3.65,5.63 3.65,8.82 0,3.19 -1.22,6.39 -3.65,8.82l-17.76 17.76c-2.55,-3.35 -5.3,-6.54 -8.22,-9.56l17.02 -17.02z"/>
   <path class="fil0" d="M31.53 101.21l-18.96 0 0 28.68 12.44 0c-0.24,2.91 -0.37,5.85 -0.37,8.83 0,1 0.01,2 0.04,2.99l-16.47 0c-1.72,-0.63 -3.27,-1.64 -4.55,-2.91l-0.01 0.01c-2.26,-2.26 -3.66,-5.38 -3.66,-8.81l0 -28.88c0,-3.41 1.4,-6.52 3.66,-8.79l0.02 -0.02c2.27,-2.26 5.38,-3.66 8.79,-3.66l24.82 0c-2.19,4.04 -4.11,8.24 -5.77,12.57z"/>
  </g>
  <path class="fil0" d="M240.88 150.98c-1.14,10.45 -3.74,20.47 -7.57,29.86 -5.51,13.5 -13.6,25.68 -23.65,35.95 -19.69,20.11 -18.83,32.47 -17.24,55.15 0.55,7.95 1.19,17.05 1.19,27.79 0,16.97 -6.94,32.4 -18.12,43.57 -11.18,11.18 -26.6,18.12 -43.57,18.12 -16.97,0 -32.4,-6.94 -43.58,-18.12 -11.18,-11.18 -18.12,-26.6 -18.12,-43.57 0,-15.82 0.45,-27.63 0.78,-36.29 0.41,-10.86 0.62,-16.31 -0.51,-19.99 -1.05,-3.41 -3.91,-6.69 -9.63,-13.27 -4.42,-5.08 -10.42,-11.97 -18.95,-22.92 -7.53,-9.66 -13.5,-20.55 -17.53,-32.3 -2.67,-7.86 -4.47,-16.18 -5.39,-24.62 -0.97,-8.99 11.43,-10.22 12.61,-0.05 0.83,7.13 2.41,14.02 4.67,20.6 3.6,10.49 8.88,20.15 15.52,28.66 7.87,10.09 14.02,17.17 18.56,22.38 6.86,7.88 10.28,11.81 12.14,17.84 1.76,5.7 1.52,11.85 1.05,24.11 -0.31,8.12 -0.73,19.17 -0.73,35.85 0,13.5 5.53,25.78 14.43,34.68 8.9,8.9 21.18,14.43 34.68,14.43 13.5,0 25.78,-5.53 34.69,-14.43 8.9,-8.9 14.43,-21.18 14.43,-34.68 0,-10.62 -0.61,-19.34 -1.14,-26.96 -1.84,-26.28 -2.84,-40.61 20.83,-64.78 8.89,-9.08 16.06,-19.89 20.95,-31.87 3.34,-8.16 5.72,-16.99 6.7,-25.89 1.08,-9.91 13.61,-9.42 12.5,0.75z"/>
  <path class="fil0" d="M31.32 129.89c-0.26,2.91 -0.39,5.85 -0.39,8.83 0,1 0.01,2 0.04,2.99l-12.58 0c-0.03,-0.99 -0.04,-1.99 -0.04,-2.99 0,-2.97 0.12,-5.91 0.35,-8.83l12.62 0z"/>
  <path class="fil0" d="M60.07 68.57l-0.13 0.13c-9.22,9.22 -16.63,20.25 -21.65,32.51l-13.46 0c5.61,-15.73 14.65,-29.83 26.22,-41.4l0.13 -0.13 8.89 8.89z"/>
  <path class="fil0" d="M116.7 40.58c-11.91,1.59 -23.14,5.3 -33.32,10.74l-9.24 -9.24c12.8,-7.41 27.2,-12.35 42.57,-14.17l0 12.67z"/>
  <path class="fil0" d="M241.21 129.89c0.23,2.91 0.35,5.85 0.35,8.83 0,1 -0.01,2 -0.04,2.99l-12.58 0c0.03,-0.99 0.04,-1.99 0.04,-2.99 0,-2.98 -0.13,-5.92 -0.39,-8.83l12.62 0zm7.41 0l0 -28.69 -20.24 0c-1.65,-4.33 -3.58,-8.54 -5.77,-12.57l26.11 0c3.43,0 6.56,1.4 8.81,3.66l-0.01 0.01c2.26,2.27 3.67,5.39 3.67,8.8l0 28.89c0,3.43 -1.4,6.56 -3.66,8.81 -1.27,1.27 -2.81,2.27 -4.53,2.9l-17.78 0c0.03,-0.99 0.04,-1.99 0.04,-2.99 0,-2.97 -0.13,-5.92 -0.37,-8.83l13.73 0z"/>
  <path class="fil0" d="M210.01 60.97c11.02,11.35 19.65,25.03 25.08,40.24l-13.46 0c-4.81,-11.75 -11.82,-22.37 -20.51,-31.35l8.89 -8.89z"/>
  <path class="fil0" d="M145.38 28.18c15.19,2.1 29.41,7.26 42.01,14.84l-9.2 9.2c-10,-5.59 -21.06,-9.49 -32.81,-11.33l0 -12.71z"/>
  <path class="fil0" d="M67.31 285.09c-2.1,0.4 -4.09,-1.13 -4.46,-3.41 -0.37,-2.28 1.04,-4.45 3.13,-4.85l3.81 -0.73c2.1,-0.4 4.09,1.13 4.46,3.41 0.37,2.28 -1.04,4.45 -3.13,4.85l-3.81 0.73zm125.03 -23.88c-2.1,0.4 -4.09,-1.13 -4.46,-3.41 -0.37,-2.28 1.04,-4.45 3.13,-4.85l4.64 -0.89c2.1,-0.4 4.09,1.13 4.46,3.41 0.37,2.28 -1.04,4.45 -3.13,4.85l-4.64 0.89z"/>
  <path class="fil0" d="M70.9 310.76c-2.05,0.4 -4.01,-1.13 -4.36,-3.41 -0.36,-2.28 1.01,-4.45 3.07,-4.85l0.36 -0.07c2.05,-0.4 4.01,1.13 4.36,3.41 0.36,2.28 -1.01,4.45 -3.07,4.85l-0.36 0.07zm122.86 -23.99c-2.05,0.4 -4.01,-1.13 -4.36,-3.41 -0.36,-2.28 1.01,-4.45 3.07,-4.85l4 -0.78c2.05,-0.4 4.01,1.13 4.36,3.41 0.36,2.28 -1.01,4.45 -3.07,4.85l-4 0.78z"/>
  <path class="fil0" d="M193.64 312.16c-1.88,0.4 -3.68,-1.12 -4.01,-3.39 -0.33,-2.27 0.93,-4.43 2.81,-4.83l2.49 -0.53c1.88,-0.4 3.68,1.12 4.01,3.39 0.33,2.27 -0.93,4.43 -2.81,4.83l-2.49 0.53z"/>
 </g>
</svg>
