<?xml version="1.0" encoding="UTF-8"?>
<!DOCTYPE svg PUBLIC "-//W3C//DTD SVG 1.1//EN" "http://www.w3.org/Graphics/SVG/1.1/DTD/svg11.dtd">
<!-- Creator: CorelDRAW 2020 (64 Bit) -->
<svg xmlns="http://www.w3.org/2000/svg" xml:space="preserve" width="23.14mm" height="28.7787mm" version="1.1" style="shape-rendering:geometricPrecision; text-rendering:geometricPrecision; image-rendering:optimizeQuality; fill-rule:evenodd; clip-rule:evenodd"
viewBox="0 0 418.82 520.87"
 xmlns:xlink="http://www.w3.org/1999/xlink"
 xmlns:xodm="http://www.corel.com/coreldraw/odm/2003">
 <defs>
  <style type="text/css">
   <![CDATA[
    .str0 {stroke:#FEFEFE;stroke-width:19.15;stroke-miterlimit:22.9256}
    .str3 {stroke:#FEFEFE;stroke-width:12.77;stroke-miterlimit:22.9256}
    .str1 {stroke:#FEFEFE;stroke-width:19.15;stroke-linecap:round;stroke-linejoin:round;stroke-miterlimit:22.9256}
    .str2 {stroke:#FEFEFE;stroke-width:20.93;stroke-linecap:round;stroke-linejoin:round;stroke-miterlimit:22.9256}
    .fil0 {fill:none}
    .fil2 {fill:none;fill-rule:nonzero}
    .fil1 {fill:#FEFEFE}
   ]]>
  </style>
 </defs>
 <g id="Camada_x0020_1">
  <metadata id="CorelCorpID_0Corel-Layer"/>
  <g id="_2630744357616">
   <rect class="fil0 str0" transform="matrix(-0.772572 -0.772572 -0.772572 0.772572 151.834 472.633)" width="134.09" height="55.67" rx="9.58" ry="9.58"/>
   <path class="fil0 str1" d="M74.76 390.48c17.76,-2.4 29.22,-16.81 34.92,-22.19 54.91,-47.2 58.85,-28.42 132.44,-5.23 42.76,2.61 53.64,-5.92 54.61,32.05 -30.09,11.77 -65.73,15.04 -100.07,9.81"/>
   <g>
    <path class="fil0 str2" d="M317.66 371.55c16.33,-14.64 13.01,-18.35 33.36,-13.73 27.06,-21.36 30.73,-29.69 51.9,-15.4 17.67,11.92 -11.4,22.05 -34.7,40.92 -99.54,80.63 -81,78.12 -180.5,60.5 -33.02,-5.85 -25.44,-12.44 -52.17,7.23"/>
   </g>
   <circle class="fil1" cx="104.39" cy="470" r="9.16"/>
   <path class="fil2 str0" d="M276.76 9.58c-34.49,0 -63.92,12.19 -88.31,36.57 -24.38,24.33 -36.57,53.77 -36.57,88.25 0,30.95 8.7,61.37 26.05,91.27 17.35,29.96 36.05,54.65 56.16,74.19 20.11,19.53 34.33,29.33 42.67,29.33 8.34,0 22.56,-9.8 42.67,-29.33 20.06,-19.54 38.86,-44.23 56.32,-74.19 17.45,-29.9 26.15,-60.33 26.15,-91.27 0,-34.49 -12.24,-63.92 -36.68,-88.25 -24.49,-24.38 -53.97,-36.57 -88.46,-36.57z"/>
   <circle class="fil0 str3" cx="276.89" cy="132.63" r="60.28"/>
  </g>
 </g>
</svg>
