<?xml version="1.0" encoding="UTF-8"?>
<!DOCTYPE svg PUBLIC "-//W3C//DTD SVG 1.1//EN" "http://www.w3.org/Graphics/SVG/1.1/DTD/svg11.dtd">
<!-- Creator: CorelDRAW 2020 (64 Bit) -->
<svg xmlns="http://www.w3.org/2000/svg" xml:space="preserve" width="27.8404mm" height="27.5002mm" version="1.1" style="shape-rendering:geometricPrecision; text-rendering:geometricPrecision; image-rendering:optimizeQuality; fill-rule:evenodd; clip-rule:evenodd"
viewBox="0 0 1172.83 1158.49"
 xmlns:xlink="http://www.w3.org/1999/xlink"
 xmlns:xodm="http://www.corel.com/coreldraw/odm/2003">
 <defs>
  <style type="text/css">
   <![CDATA[
    .str0 {stroke:#FEFEFE;stroke-width:44.58;stroke-miterlimit:22.9256}
    .str1 {stroke:#FEFEFE;stroke-width:44.58;stroke-linecap:round;stroke-linejoin:round;stroke-miterlimit:22.9256}
    .str2 {stroke:#FEFEFE;stroke-width:40.47;stroke-linecap:round;stroke-linejoin:round;stroke-miterlimit:22.9256}
    .str3 {stroke:#FEFEFE;stroke-width:40.47;stroke-linecap:round;stroke-linejoin:round;stroke-miterlimit:22.9256}
    .str4 {stroke:#FEFEFE;stroke-width:40.47;stroke-linecap:round;stroke-linejoin:round;stroke-miterlimit:22.9256}
    .fil0 {fill:none}
    .fil1 {fill:#FEFEFE}
    .fil2 {fill:#FEFEFE;fill-rule:nonzero}
   ]]>
  </style>
 </defs>
 <g id="Camada_x0020_1">
  <metadata id="CorelCorpID_0Corel-Layer"/>
  <g id="_2630744793984">
   <rect class="fil0 str0" transform="matrix(-0.96577 -0.96577 -0.96577 0.96577 436.19 1023.71)" width="312.09" height="129.57" rx="22.29" ry="22.29"/>
   <circle class="fil1" cx="285.47" cy="1002.5" r="22.15"/>
   <path class="fil2" d="M815.55 571.55l34.26 -34.26 2.86 -2.86c6.9,-6.9 10.35,-16.02 10.35,-25.14 0,-9.09 -3.43,-18.18 -10.28,-25.07l-0.08 -0.08c-6.9,-6.9 -16.02,-10.35 -25.14,-10.35 -8.64,0 -17.26,3.08 -24,9.22l-1.14 1.14 -35.06 35.06 -0 0 -0.16 -0.17 -0.33 0.34c-5.39,5.37 -14.18,5.36 -19.55,-0.03l0 0c-5.38,-5.38 -5.36,-14.18 0.02,-19.56l9.39 -9.36c0.45,-0.45 0.93,-0.86 1.42,-1.24l24.66 -24.67 2.86 -2.86c6.9,-6.9 10.35,-16.02 10.35,-25.14 0,-9.08 -3.43,-18.17 -10.28,-25.07l-0.08 -0.07c-6.9,-6.9 -16.02,-10.35 -25.14,-10.35 -8.65,0 -17.3,3.08 -24.04,9.26l-1.09 1.09 -22.51 22.51 -0.11 0.12 -1.62 1.61 -10.82 10.82 -0.01 -0.01 -0.48 0.47c-7.41,7.39 -19.53,7.38 -26.92,-0.03l0 0c-7.4,-7.41 -7.38,-19.53 0.03,-26.92l12.93 -12.9c0.37,-0.36 0.74,-0.71 1.12,-1.04l38.39 -38.38c9.44,-9.45 14.18,-21.94 14.18,-34.43 0,-12.45 -4.7,-24.89 -14.08,-34.33l-0.11 -0.11c-9.45,-9.45 -21.94,-14.18 -34.43,-14.18 -12.15,0 -24.28,4.44 -33.62,13.32l-0.81 0.86 -48.02 48.02 -25.77 -27.97 46.92 -46.92 1.18 -1.09c16.73,-16.14 38.44,-24.22 60.11,-24.22 22.21,0 44.43,8.44 61.3,25.31 16.88,16.88 25.32,39.11 25.32,61.31 0,13.93 -3.32,27.86 -9.95,40.48 13.78,1.54 27.15,7.57 37.67,18.09 12.33,12.32 18.49,28.55 18.49,44.76 0,3.24 -0.25,6.47 -0.74,9.68 1.51,-0.11 3.02,-0.16 4.54,-0.16 16.21,0 32.43,6.16 44.75,18.48 12.33,12.33 18.49,28.55 18.49,44.76 0,3.24 -0.25,6.47 -0.74,9.68 1.51,-0.11 3.02,-0.16 4.54,-0.16 16.21,0 32.44,6.16 44.76,18.48 12.33,12.32 18.49,28.55 18.49,44.76 0,16.21 -6.16,32.44 -18.48,44.76l-37.92 37.92 -38.34 -9.15 56.64 -48.39c6.9,-6.9 10.35,-16.02 10.35,-25.14 0,-9.09 -3.43,-18.18 -10.28,-25.07l-0.08 -0.08c-6.9,-6.9 -16.02,-10.35 -25.14,-10.35 -8.64,0 -17.26,3.07 -24,9.21l-1.14 1.14 -24.61 24.61 -0.56 0.59 -9.39 9.36 -0.25 0.25 -0.24 0.25 -0 0 -0.01 -0.01c-5.42,4.88 -13.83,4.71 -19.04,-0.51l0 0c-5.38,-5.38 -5.36,-14.18 0.02,-19.55l0.27 -0.27 -0.07 -0.07z"/>
   <path class="fil0 str1" d="M393.69 222.51l0 0c18.72,-18.72 49.33,-18.71 68.05,0l150.93 150.93c18.72,18.71 18.72,49.33 0,68.05l0 0c-18.72,18.72 -49.34,18.72 -68.05,0l-150.93 -150.93c-18.71,-18.72 -18.72,-49.33 0,-68.05z"/>
   <g>
    <path class="fil0 str2" d="M346.13 324.71l0 0c18.72,-18.71 49.33,-18.71 68.05,0l131.2 131.2c18.72,18.71 18.72,49.33 0,68.05l0 0c-18.72,18.72 -49.34,18.72 -68.05,0l-131.2 -131.2c-18.71,-18.72 -18.71,-49.33 0,-68.05z"/>
   </g>
   <g>
    <path class="fil0 str3" d="M294.11 436.94l0 0c18.72,-18.72 49.33,-18.71 68.05,0l101.09 101.09c18.71,18.71 18.71,49.33 0,68.05l0 0c-18.72,18.72 -49.34,18.72 -68.05,0l-101.09 -101.09c-18.71,-18.72 -18.72,-49.33 0,-68.05z"/>
   </g>
   <g>
    <path class="fil0 str4" d="M240.14 553.45l0 0c18.72,-18.72 49.33,-18.71 68.05,0l67.44 67.44c18.72,18.71 18.72,49.33 0,68.05l0 0c-18.71,18.72 -49.33,18.72 -68.05,0l-67.44 -67.44c-18.71,-18.72 -18.72,-49.33 0,-68.05z"/>
   </g>
   <line class="fil0 str0" x1="273.86" y1="655.22" x2="180.82" y2= "748.26" />
   <path class="fil0 str1" d="M412.67 981.6c61.18,-61.35 85.44,-87.38 115.57,-95.29 52.42,-13.78 88.45,23.49 152.92,-23.29 8.76,-6.36 198.09,-194.31 208.01,-204.11"/>
   <path class="fil0 str0" d="M449.37 213.57c94.07,37.08 133.22,54.9 213.63,58.07"/>
   <rect class="fil0 str0" transform="matrix(0.96577 -0.96577 -0.96577 -0.96577 861.771 1145.38)" width="312.09" height="129.57" rx="22.29" ry="22.29"/>
   <line class="fil0 str1" x1="761.32" y1="987.45" x2="697.88" y2= "924.02" />
   <line class="fil0 str0" x1="1002.15" y1="754.72" x2="896.93" y2= "649.51" />
   <circle class="fil1" cx="1046.1" cy="831.42" r="22.15"/>
   <rect class="fil1" x="561.71" y="-0" width="43" height="156" rx="21.5" ry="25.83"/>
   <rect class="fil1" transform="matrix(0.641927 -0.641927 0.771144 0.771144 186.528 40.5757)" width="47.37" height="143.04" rx="23.69" ry="23.69"/>
   <rect class="fil1" transform="matrix(0.641927 0.641927 0.771144 -0.771144 840.448 125.11)" width="47.37" height="143.04" rx="23.69" ry="23.69"/>
  </g>
 </g>
</svg>
