<?xml version="1.0" encoding="UTF-8"?>
<!DOCTYPE svg PUBLIC "-//W3C//DTD SVG 1.1//EN" "http://www.w3.org/Graphics/SVG/1.1/DTD/svg11.dtd">
<!-- Creator: CorelDRAW 2020 (64 Bit) -->
<svg xmlns="http://www.w3.org/2000/svg" xml:space="preserve" width="24.6892mm" height="25.4324mm" version="1.1" style="shape-rendering:geometricPrecision; text-rendering:geometricPrecision; image-rendering:optimizeQuality; fill-rule:evenodd; clip-rule:evenodd"
viewBox="0 0 19859.15 20456.95"
 xmlns:xlink="http://www.w3.org/1999/xlink"
 xmlns:xodm="http://www.corel.com/coreldraw/odm/2003">
 <defs>
  <style type="text/css">
   <![CDATA[
    .str0 {stroke:#FEFEFE;stroke-width:283.78;stroke-miterlimit:22.9256}
    .fil0 {fill:#FEFEFE;fill-rule:nonzero}
   ]]>
  </style>
 </defs>
 <g id="Camada_x0020_1">
  <metadata id="CorelCorpID_0Corel-Layer"/>
  <path class="fil0 str0" d="M13570.29 15253.43c-121.54,0 -220.07,-98.62 -220.07,-220.15 0,-121.54 98.53,-220.07 220.07,-220.07l5704.56 0c1.53,-42.39 2.17,-91.13 2.17,-146.64l0 -1063.85c0,-1089.03 -445.7,-2079.45 -1163.76,-2797.5 -717.9,-717.98 -1708.31,-1163.68 -2797.34,-1163.68 -371.46,0 -725.14,53.41 -1060.31,151.86 -357.7,105.05 -696.18,260.94 -1014.31,457.68 -102.96,63.63 -238.17,31.69 -301.72,-71.27 -63.63,-103.04 -31.69,-238.09 71.35,-301.8 351.59,-217.42 725.7,-389.8 1120.88,-505.87 377.01,-110.76 772.19,-170.77 1184.03,-170.77 1210.57,0 2311.02,495.09 3108.63,1292.78 797.61,797.53 1292.78,1897.9 1292.78,3108.55l0 1063.85c0,55.1 -1.77,120.09 -5.07,193.77 -3.3,72.23 -7.32,134.57 -11.82,187.34 -7.4,114.78 -102.96,205.76 -219.59,205.76l-5910.48 0zm-6811.37 -5333.75c102.07,65.56 131.76,201.41 66.2,303.41 -65.48,102.15 -201.33,131.67 -303.41,66.2 -314.59,-203.02 -499.27,-270.67 -864.69,-378.37 -352.31,-104 -726.18,-159.75 -1113.72,-159.75 -1089.11,0 -2079.37,445.62 -2797.42,1163.68 -718.14,717.98 -1163.76,1708.31 -1163.76,2797.42l0 1063.85c0,55.5 0.64,104.25 2.17,146.64l5674 0c121.54,0 220.15,98.53 220.15,220.07 0,121.54 -98.62,220.15 -220.15,220.15l-5879.91 0c-113.01,0 -209.3,-86.47 -219.11,-201.25 -4.75,-53.65 -8.93,-117.2 -12.31,-191.84 -3.3,-73.6 -5.07,-138.67 -5.07,-193.77l0 -1063.85c0,-1210.57 495.17,-2311.02 1292.78,-3108.55 797.61,-797.61 1898.06,-1292.78 3108.55,-1292.78 428,0 843.46,62.42 1237.6,178.65 406.93,120.09 629.74,205.11 978.11,430.09zm3165.58 -9777.79c789.89,0 1505.21,320.22 2022.98,837.99 517.77,517.69 837.99,1233.01 837.99,2022.9 0,789.89 -320.22,1505.21 -837.99,2022.98 -517.77,517.69 -1232.93,837.99 -2022.98,837.99 -789.97,0 -1505.21,-320.3 -2022.9,-837.99 -517.69,-517.77 -837.99,-1232.93 -837.99,-2022.98 0,-789.97 320.3,-1505.21 837.99,-2022.9 517.69,-517.77 1233.01,-837.99 2022.9,-837.99zm1711.85 1149.12c-437.98,-438.06 -1043.26,-708.97 -1711.85,-708.97 -668.51,0 -1273.79,270.91 -1711.77,708.97 -438.06,437.98 -708.97,1043.34 -708.97,1711.77 0,668.51 270.91,1273.87 708.97,1711.85 437.98,438.06 1043.34,708.97 1711.77,708.97 668.51,0 1273.87,-270.91 1711.85,-708.97 437.98,-437.98 708.97,-1043.26 708.97,-1711.85 0,-668.51 -270.99,-1273.79 -708.97,-1711.77zm-1711.85 7066.67c789.89,0 1505.21,320.3 2022.98,838.15 517.77,517.69 837.99,1233.01 837.99,2022.9 0,789.97 -320.22,1505.21 -837.99,2022.9 -517.77,517.69 -1232.93,837.99 -2022.98,837.99 -789.97,0 -1505.21,-320.3 -2022.9,-837.99 -517.69,-517.69 -837.99,-1232.93 -837.99,-2022.9 0,-790.05 320.3,-1505.21 837.99,-2022.9 517.69,-517.85 1233.01,-838.15 2022.9,-838.15zm1711.85 1149.2c-437.98,-437.98 -1043.26,-708.97 -1711.85,-708.97 -668.51,0 -1273.79,270.99 -1711.77,708.97 -438.06,438.06 -708.97,1043.34 -708.97,1711.85 0,668.43 270.91,1273.79 708.97,1711.77 437.98,437.98 1043.34,708.97 1711.77,708.97 668.51,0 1273.87,-270.99 1711.85,-708.97 437.98,-437.98 708.97,-1043.26 708.97,-1711.77 0,-668.59 -270.99,-1273.79 -708.97,-1711.85zm2684.49 10415.09c-3.3,72.31 -7.24,134.65 -11.82,187.42 -7.4,114.78 -102.88,205.68 -219.59,205.68l-8329.77 0c-113.09,0 -209.3,-86.39 -219.27,-201.17 -4.58,-53.65 -8.77,-117.28 -12.15,-191.92 -3.3,-73.68 -5.07,-138.51 -5.07,-193.69l0 -1063.85c0,-1210.49 495.01,-2310.94 1292.7,-3108.55 797.69,-797.77 1898.14,-1292.78 3108.63,-1292.78 1210.73,0 2311.18,495.01 3108.63,1292.78 797.69,797.61 1292.78,1898.06 1292.78,3108.55l0 1063.85c0,55.18 -1.77,120.01 -5.07,193.69zm-437.25 -47.06c1.45,-42.47 2.25,-91.13 2.25,-146.64l0 -1063.85c0,-1089.11 -445.78,-2079.45 -1163.76,-2797.5 -718.06,-718.06 -1708.39,-1163.68 -2797.5,-1163.68 -1089.19,0 -2079.53,445.62 -2797.5,1163.68 -718.06,718.06 -1163.84,1708.39 -1163.84,2797.5l0 1063.85c0,55.5 0.8,104.17 2.25,146.64l7918.1 0zm-9340.29 -16469.31c789.97,0 1505.29,320.3 2022.98,838.07 517.69,517.69 837.99,1233.01 837.99,2022.98 0,789.89 -320.3,1505.21 -837.99,2022.9 -517.69,517.69 -1233.01,837.99 -2022.98,837.99 -789.89,0 -1505.21,-320.3 -2022.9,-837.99 -517.69,-517.69 -838.07,-1233.01 -838.07,-2022.9 0,-790.05 320.38,-1505.29 838.07,-2022.98 517.69,-517.77 1233.01,-838.07 2022.9,-838.07zm1711.77 1149.28c-437.98,-438.14 -1043.18,-709.05 -1711.77,-709.05 -668.43,0 -1273.71,270.91 -1711.69,709.05 -438.06,437.98 -709.13,1043.18 -709.13,1711.77 0,668.51 271.07,1273.79 709.13,1711.69 437.98,438.06 1043.26,708.97 1711.69,708.97 668.59,0 1273.79,-270.91 1711.77,-708.97 438.06,-437.9 708.97,-1043.18 708.97,-1711.69 0,-668.67 -270.91,-1273.79 -708.97,-1711.77zm9060.78 -1258.83c789.89,0 1505.21,320.22 2022.9,838.07 517.69,517.69 838.07,1233.01 838.07,2022.9 0,789.97 -320.38,1505.21 -838.07,2022.9 -517.69,517.69 -1233.01,838.07 -2022.9,838.07 -789.97,0 -1505.29,-320.38 -2022.98,-838.07 -517.69,-517.69 -837.99,-1232.93 -837.99,-2022.9 0,-790.05 320.3,-1505.21 837.99,-2022.9 517.69,-517.85 1233.01,-838.07 2022.98,-838.07zm1711.69 1149.12c-437.98,-437.98 -1043.26,-708.97 -1711.69,-708.97 -668.59,0 -1273.79,270.99 -1711.77,708.97 -438.06,438.14 -708.97,1043.42 -708.97,1711.85 0,668.43 270.91,1273.79 708.97,1711.85 437.98,437.9 1043.18,708.89 1711.77,708.89 668.43,0 1273.71,-270.99 1711.69,-708.89 438.14,-438.06 709.13,-1043.34 709.13,-1711.85 0,-668.59 -270.99,-1273.71 -709.13,-1711.85z"/>
 </g>
</svg>
