<?xml version="1.0" encoding="UTF-8"?>
<!DOCTYPE svg PUBLIC "-//W3C//DTD SVG 1.1//EN" "http://www.w3.org/Graphics/SVG/1.1/DTD/svg11.dtd">
<!-- Creator: CorelDRAW 2020 (64 Bit) -->
<svg xmlns="http://www.w3.org/2000/svg" xml:space="preserve" width="21.5302mm" height="20.5707mm" version="1.1" style="shape-rendering:geometricPrecision; text-rendering:geometricPrecision; image-rendering:optimizeQuality; fill-rule:evenodd; clip-rule:evenodd"
viewBox="0 0 314.01 300.01"
 xmlns:xlink="http://www.w3.org/1999/xlink"
 xmlns:xodm="http://www.corel.com/coreldraw/odm/2003">
 <defs>
  <style type="text/css">
   <![CDATA[
    .fil0 {fill:#FEFEFE;fill-rule:nonzero}
   ]]>
  </style>
 </defs>
 <g id="Camada_x0020_1">
  <metadata id="CorelCorpID_0Corel-Layer"/>
  <path class="fil0" d="M269.59 79.69c-1.57,-2.69 -0.67,-6.14 2.01,-7.72 2.68,-1.57 6.14,-0.67 7.72,2.01 6.69,11.36 11.93,23.64 15.45,36.58 3.42,12.57 5.24,25.8 5.24,39.44 0,41.42 -16.79,78.93 -43.93,106.07 -27.15,27.14 -64.65,43.94 -106.07,43.94 -41.42,0 -78.93,-16.79 -106.07,-43.94 -27.15,-27.14 -43.94,-64.65 -43.94,-106.07 0,-41.42 16.79,-78.92 43.94,-106.07 27.14,-27.14 64.65,-43.94 106.07,-43.94 16.21,0 31.84,2.58 46.5,7.36 15.16,4.94 29.28,12.24 41.9,21.46 2.52,1.84 3.06,5.38 1.22,7.89 -1.84,2.52 -5.38,3.06 -7.89,1.22 -11.65,-8.51 -24.69,-15.25 -38.72,-19.82 -13.52,-4.4 -27.97,-6.78 -43,-6.78 -38.3,0 -72.97,15.52 -98.07,40.62 -25.1,25.1 -40.62,59.77 -40.62,98.06 0,38.3 15.52,72.97 40.62,98.06 25.1,25.1 59.77,40.62 98.07,40.62 38.3,0 72.97,-15.52 98.06,-40.62 25.1,-25.09 40.62,-59.77 40.62,-98.06 0,-12.63 -1.69,-24.86 -4.84,-36.48 -3.27,-12.05 -8.1,-23.4 -14.25,-33.84z"/>
  <path class="fil0" d="M45.1 170.9c-9.47,-6.15 -12.16,-18.81 -6.01,-28.28 6.15,-9.47 18.81,-12.16 28.28,-6.01 16,10.45 29.84,22.92 42.69,36.76 5.06,5.45 9.95,11.09 14.75,16.88 17.01,-33.73 36.49,-63.83 58.02,-90.43 29.48,-36.43 62.97,-66.63 99.35,-90.96 9.38,-6.28 22.08,-3.77 28.36,5.61 6.28,9.38 3.77,22.08 -5.61,28.36 -32.82,21.95 -63.22,49.42 -90.22,82.79 -25.57,31.61 -47.93,68.27 -66.21,110.25 -1.28,3.59 -3.59,6.87 -6.84,9.36 -8.98,6.86 -21.82,5.14 -28.68,-3.84 -10.92,-14.35 -21.63,-28 -32.88,-40.13 -10.84,-11.68 -22.26,-22.03 -35,-30.35z"/>
 </g>
</svg>
