<?xml version="1.0" encoding="UTF-8"?>
<!DOCTYPE svg PUBLIC "-//W3C//DTD SVG 1.1//EN" "http://www.w3.org/Graphics/SVG/1.1/DTD/svg11.dtd">
<!-- Creator: CorelDRAW 2020 (64 Bit) -->
<svg xmlns="http://www.w3.org/2000/svg" xml:space="preserve" width="23.1268mm" height="22.3473mm" version="1.1" style="shape-rendering:geometricPrecision; text-rendering:geometricPrecision; image-rendering:optimizeQuality; fill-rule:evenodd; clip-rule:evenodd"
viewBox="0 0 251.82 243.33"
 xmlns:xlink="http://www.w3.org/1999/xlink"
 xmlns:xodm="http://www.corel.com/coreldraw/odm/2003">
 <defs>
  <style type="text/css">
   <![CDATA[
    .str0 {stroke:#FEFEFE;stroke-width:1.92;stroke-miterlimit:22.9256}
    .fil0 {fill:#FEFEFE;fill-rule:nonzero}
   ]]>
  </style>
 </defs>
 <g id="Camada_x0020_1">
  <metadata id="CorelCorpID_0Corel-Layer"/>
  <path class="fil0" d="M125.53 12.65c1.36,0.73 1.87,2.42 1.14,3.78 -0.73,1.36 -2.42,1.87 -3.78,1.14l-4.47 -2.4c-0.16,-0.08 -0.3,-0.18 -0.43,-0.29l-11.06 -8.46 -36.1 0 0 18.63c0,1.54 -1.25,2.8 -2.8,2.8l-41.23 0 0 24.93c0,0.74 -0.28,1.41 -0.75,1.91l-20.45 25.39 0 30.01 50.09 0c0.84,0 1.6,0.37 2.12,0.97l40.15 39.92c0.3,0.29 0.51,0.64 0.65,1.01l0.01 -0 13.74 37.04c0.29,0.77 0.21,1.6 -0.15,2.27l-12.32 28.25 40.04 17.7 41.78 -38.91 0 -22.09c0,-1.54 1.25,-2.8 2.8,-2.8l30.75 0 0 -20.03c0,-0.72 0.27,-1.38 0.72,-1.87l30.27 -38.01 -0.22 -46.83 -29.44 -7.58c-1.49,-0.38 -2.39,-1.89 -2.01,-3.38 0.38,-1.49 1.9,-2.39 3.39,-2.01l31.44 8.09c1.25,0.27 2.18,1.38 2.19,2.71l0.23 49.79c0.05,0.67 -0.15,1.36 -0.6,1.92l-30.37 38.13 0 21.86c0,1.54 -1.25,2.8 -2.8,2.8l-30.75 0 0 20.5 -0.01 0c0,0.75 -0.3,1.49 -0.89,2.04l-43.93 40.91c-0.79,0.81 -2.03,1.09 -3.12,0.61l-44.26 -19.57c-1.4,-0.62 -2.04,-2.26 -1.43,-3.67l13.06 -29.94 -13.15 -35.43 -39.03 -38.8 -51.74 0c-1.54,0 -2.8,-1.25 -2.8,-2.8l0 -33.78 0.01 0c0,-0.61 0.2,-1.23 0.62,-1.75l20.58 -25.55 0 -26.75c0,-1.54 1.25,-2.8 2.8,-2.8l41.23 0 0 -18.63c0,-1.54 1.25,-2.8 2.8,-2.8l39.83 0 0 0.01c0.59,-0 1.19,0.19 1.69,0.57l11.7 8.95 4.27 2.3z"/>
  <path class="fil0 str0" d="M167.06 6.05c-10.47,0 -19.39,3.7 -26.79,11.09l-0.13 0.12c-3.64,3.66 -6.37,7.7 -8.2,12.1 -1.84,4.44 -2.76,9.29 -2.76,14.55 0,4.78 0.67,9.51 2.01,14.21 1.35,4.73 3.38,9.42 6.07,14.07 2.75,4.75 5.61,9.09 8.59,13.02 2.96,3.91 6.01,7.39 9.17,10.46 3.15,3.06 5.83,5.35 8.01,6.85 1.86,1.28 3.2,1.92 4.04,1.92 0.83,0 2.18,-0.64 4.04,-1.92 2.18,-1.5 4.85,-3.79 8.01,-6.85 3.18,-3.1 6.25,-6.59 9.21,-10.49 2.95,-3.89 5.82,-8.21 8.59,-12.98l0 -0.01c2.72,-4.66 4.75,-9.35 6.1,-14.06 1.34,-4.69 2.02,-9.43 2.02,-14.21 0,-5.25 -0.92,-10.1 -2.77,-14.54 -1.85,-4.46 -4.64,-8.53 -8.35,-12.23 -3.73,-3.71 -7.82,-6.49 -12.28,-8.33 -4.45,-1.84 -9.31,-2.76 -14.57,-2.76zm-30.39 7.49c8.39,-8.39 18.52,-12.59 30.39,-12.59 5.9,0 11.4,1.05 16.5,3.16 5.09,2.1 9.73,5.25 13.93,9.43 4.2,4.18 7.35,8.81 9.46,13.88 2.11,5.08 3.17,10.58 3.17,16.49 0,5.24 -0.74,10.44 -2.21,15.6 -1.47,5.14 -3.67,10.21 -6.6,15.24l-0 -0c-2.85,4.9 -5.84,9.39 -8.95,13.49 -3.14,4.13 -6.38,7.82 -9.71,11.07 -3.36,3.26 -6.25,5.73 -8.67,7.39 -2.75,1.89 -5.05,2.83 -6.92,2.83 -1.87,0 -4.18,-0.95 -6.92,-2.83 -2.42,-1.66 -5.31,-4.13 -8.67,-7.39 -3.36,-3.26 -6.58,-6.94 -9.69,-11.03 -3.08,-4.07 -6.06,-8.58 -8.92,-13.53 -2.92,-5.03 -5.11,-10.11 -6.57,-15.23 -1.47,-5.16 -2.21,-10.36 -2.21,-15.6 0,-5.91 1.05,-11.41 3.16,-16.5 2.08,-5.01 5.18,-9.59 9.3,-13.74l0.13 -0.14z"/>
  <path class="fil0" d="M167.11 22.13c5.86,0 11.16,2.38 15,6.22 3.84,3.84 6.21,9.14 6.21,15 0,5.86 -2.37,11.16 -6.21,15 -3.84,3.84 -9.14,6.21 -15,6.21 -5.86,0 -11.16,-2.37 -15,-6.21 -3.84,-3.84 -6.22,-9.14 -6.22,-15 0,-5.86 2.38,-11.16 6.22,-15 3.84,-3.84 9.14,-6.22 15,-6.22zm12.6 8.62c-3.22,-3.23 -7.68,-5.22 -12.6,-5.22 -4.92,0 -9.38,1.99 -12.6,5.22 -3.22,3.22 -5.22,7.68 -5.22,12.6 0,4.92 1.99,9.38 5.22,12.6 3.22,3.22 7.68,5.22 12.6,5.22 4.92,0 9.38,-1.99 12.6,-5.22 3.22,-3.23 5.22,-7.68 5.22,-12.6 0,-4.92 -1.99,-9.38 -5.22,-12.6z"/>
 </g>
</svg>
