<?xml version="1.0" encoding="UTF-8"?>
<!DOCTYPE svg PUBLIC "-//W3C//DTD SVG 1.1//EN" "http://www.w3.org/Graphics/SVG/1.1/DTD/svg11.dtd">
<!-- Creator: CorelDRAW 2020 (64 Bit) -->
<svg xmlns="http://www.w3.org/2000/svg" xml:space="preserve" width="28.9444mm" height="15.0221mm" version="1.1" style="shape-rendering:geometricPrecision; text-rendering:geometricPrecision; image-rendering:optimizeQuality; fill-rule:evenodd; clip-rule:evenodd"
viewBox="0 0 1227.09 636.86"
 xmlns:xlink="http://www.w3.org/1999/xlink"
 xmlns:xodm="http://www.corel.com/coreldraw/odm/2003">
 <defs>
  <style type="text/css">
   <![CDATA[
    .fil1 {fill:#FEFEFE}
    .fil0 {fill:#FEFEFE;fill-rule:nonzero}
   ]]>
  </style>
 </defs>
 <g id="Camada_x0020_1">
  <metadata id="CorelCorpID_0Corel-Layer"/>
  <g id="_2630189543456">
   <path class="fil0" d="M165.37 290.45c0,-2.76 2.24,-5 5,-5 2.76,0 5,2.24 5,5l0 264.7 303.57 0c2.76,0 5,2.24 5,5 0,2.76 -2.24,5 -5,5l-308.57 0c-2.76,0 -5,-2.24 -5,-5l0 -269.7z"/>
   <path class="fil0" d="M837.44 600.36c9.71,0 17.58,7.87 17.58,17.58 0,9.7 -7.87,17.58 -17.58,17.58l-769.6 0.28c-9.7,0 -17.58,-7.87 -17.58,-17.58l-0.07 0 0 -529.46c0,-9.75 7.9,-17.65 17.65,-17.65l1.56 0.07 784.59 -0.28c9.7,0 17.58,7.87 17.58,17.58l0.07 0 0 225.23c0,9.74 -7.9,17.65 -17.65,17.65 -9.75,0 -17.65,-7.91 -17.65,-17.65l0 -207.65 -750.85 0.27 0 494.3 751.96 -0.27z"/>
   <rect class="fil1" x="-0" y="-0" width="921.59" height="85.45" rx="42.73" ry="42.73"/>
   <path class="fil0" d="M146.47 185.01c-9.75,0 -17.65,-7.91 -17.65,-17.65 0,-9.75 7.91,-17.65 17.65,-17.65l609.7 0c9.75,0 17.65,7.9 17.65,17.65 0,9.74 -7.9,17.65 -17.65,17.65l-609.7 0z"/>
   <path class="fil0" d="M146.47 256.98c-9.75,0 -17.65,-7.91 -17.65,-17.65 0,-9.75 7.91,-17.65 17.65,-17.65l609.7 0c9.75,0 17.65,7.9 17.65,17.65 0,9.74 -7.9,17.65 -17.65,17.65l-609.7 0z"/>
   <path class="fil0" d="M516.41 553.71c-7.61,6.02 -18.67,4.72 -24.68,-2.9 -6.01,-7.61 -4.71,-18.67 2.9,-24.68l74.45 -58.74c7.61,-6.01 18.67,-4.72 24.68,2.9l20.67 29.25 46.48 -41.45c7.27,-6.47 18.41,-5.82 24.89,1.45 6.47,7.27 5.83,18.42 -1.45,24.89l-61.22 54.6 -1.59 1.24c-7.95,5.6 -18.95,3.68 -24.54,-4.27l-20.75 -29.49 -59.84 47.21z"/>
   <polygon class="fil1" points="640.03,439.53 684.8,425.96 729.55,412.4 717.69,459.21 705.83,506.01 672.93,472.78 "/>
   <path class="fil0" d="M638.59 434.77l97.97 -29.7 -28.06 110.74 -77.82 -78.65 7.91 -2.4zm47.65 -4.04l-36.85 11.17 53.76 54.33 19.38 -76.5 -36.29 11z"/>
   <rect class="fil1" x="209.25" y="344.23" width="57.08" height="180.35" rx="15.72" ry="15.72"/>
   <rect class="fil1" x="385.46" y="362.43" width="57.08" height="162.15" rx="14.89" ry="13.39"/>
   <rect class="fil1" x="297.35" y="395.52" width="57.08" height="129.05" rx="14.89" ry="10.65"/>
   <path class="fil0" d="M1226.85 609.34l-0.45 7.39c-0.39,5.61 -2.92,10.64 -6.77,14.25l-0.06 0c-3.89,3.63 -9.07,5.88 -14.71,5.88l-316.81 0c-5.52,0 -10.67,-2.16 -14.56,-5.72 -3.88,-3.55 -6.49,-8.48 -6.97,-14.02 0,-4.98 -0.57,-10.68 -0.71,-15.81l0 -40.46c0,-9.61 0.81,-19.21 2.34,-28.73 1.1,-6.8 2.59,-13.51 4.46,-20.09l-151.98 -152.03c-9.76,-9.77 -14.66,-22.62 -14.66,-35.43 0,-11.02 3.6,-22.05 10.78,-31.13l0 -0.48 3.87 -3.87c9.77,-9.77 22.64,-14.66 35.49,-14.66 12.81,0 25.67,4.9 35.46,14.69l136.04 135.98c14.74,-12.92 31.58,-23.5 49.92,-31.13 21.3,-8.86 44.59,-13.76 68.91,-13.76 24.32,0 47.62,4.9 68.91,13.76 22.06,9.17 41.97,22.63 58.63,39.29 16.7,16.7 30.17,36.62 39.34,58.68 8.86,21.3 13.76,44.6 13.76,68.92l0 40.46c-0.07,2.65 -0.24,5.41 -0.24,8.04zm-26.51 1.05l0.27 -5.97 0 -43.57c0,-20.82 -4.16,-40.69 -11.69,-58.78 -7.84,-18.87 -19.33,-35.88 -33.55,-50.09 -14.25,-14.25 -31.28,-25.76 -50.16,-33.61 -18.09,-7.52 -37.95,-11.68 -58.77,-11.68 -20.82,0 -40.68,4.16 -58.77,11.68 -18.87,7.85 -35.88,19.34 -50.13,33.59l-10.23 10.28c-16.11,-16.12 -154.42,-154.3 -154.42,-154.49 -4.56,-4.56 -10.65,-6.85 -16.77,-6.85 -5.96,0 -11.93,2.22 -16.49,6.63l-0.28 0.28c-4.6,4.6 -6.91,10.68 -6.91,16.76 0,6.11 2.3,12.2 6.88,16.79l163.33 163.28 -2.59 7.76c-2.55,7.66 -4.52,15.64 -5.85,23.86 -1.27,7.84 -1.93,16.06 -1.93,24.59l0 43.41 0.28 6.13 307.78 0z"/>
   <path class="fil0" d="M1046.45 112.02c16.48,0 32.25,3.3 46.68,9.28 14.99,6.24 28.44,15.3 39.63,26.48 11.19,11.19 20.26,24.66 26.48,39.68 5.96,14.42 9.27,30.17 9.27,46.62 0,16.48 -3.3,32.25 -9.28,46.67 -6.23,15 -15.29,28.44 -26.47,39.62 -22.08,22.08 -52.6,35.75 -86.3,35.75 -16.44,0 -32.2,-3.3 -46.63,-9.28 -14.92,-6.16 -28.35,-15.23 -39.61,-26.48l-0.06 -0.06c-11.22,-11.23 -20.28,-24.66 -26.45,-39.57 -6,-14.42 -9.3,-30.2 -9.3,-46.67 0,-16.45 3.31,-32.21 9.28,-46.63 6.22,-15.02 15.29,-28.49 26.48,-39.68 11.26,-11.2 24.69,-20.26 39.62,-26.45 14.42,-6 30.2,-9.3 46.67,-9.3zm36.57 33.68c-11.23,-4.64 -23.57,-7.21 -36.57,-7.21 -12.99,0 -25.34,2.56 -36.54,7.21 -11.71,4.83 -22.23,11.93 -31.03,20.74l0 0.06c-8.87,8.87 -15.99,19.39 -20.79,30.99 -4.64,11.2 -7.2,23.56 -7.2,36.59 0,12.99 2.56,25.34 7.21,36.54 4.83,11.71 11.93,22.23 20.74,31.03l0.06 0.06c8.78,8.78 19.31,15.88 31.03,20.74 11.18,4.64 23.53,7.2 36.54,7.2 26.39,0 50.29,-10.7 67.58,-27.99 8.86,-8.86 15.99,-19.38 20.79,-30.99 4.64,-11.26 7.21,-23.6 7.21,-36.59 0,-13.03 -2.57,-25.39 -7.21,-36.59 -4.81,-11.61 -11.93,-22.13 -20.79,-30.99 -8.87,-8.87 -19.39,-15.99 -31.02,-20.79z"/>
  </g>
 </g>
</svg>
